<svg xmlns="http://www.w3.org/2000/svg" width="1024" height="1024" viewBox="0 0 1024 1024">

  <defs>
    <filter id="card-shadow" x="-20%" y="-20%" width="140%" height="150%" color-interpolation-filters="sRGB">
      <feDropShadow dx="0" dy="8" stdDeviation="8" flood-color="#000000" flood-opacity="0.20" />
    </filter>
  </defs>

  <path
    d="M248 24C112 24 24 112 24 248V776C24 912 112 1000 248 1000H776C912 1000 1000 912 1000 776V248C1000 112 912 24 776 24H248Z"
    fill="#181A1F"
    stroke="#2A2E37"
    stroke-width="2"
  />

  <g id="kanitsu-mark" shape-rendering="geometricPrecision">
    <rect x="184" y="416" width="480" height="420" rx="34" fill="#C8C1B4" filter="url(#card-shadow)" />
    <rect x="282" y="306" width="462" height="474" rx="34" fill="#68749A" filter="url(#card-shadow)" />
    <rect x="754" y="418" width="46" height="106" rx="18" fill="#C46B5C" />
    <path
      d="M468 194H766A34 34 0 0 1 800 228V398C800 410 795 418 785 424L771 433C763 438 758 447 758 457V483C758 493 763 502 771 507L785 516C795 522 800 530 800 542V684A34 34 0 0 1 766 718H468A34 34 0 0 1 434 684V228A34 34 0 0 1 468 194Z"
      fill="#E7E3D9"
      filter="url(#card-shadow)"
    />
  </g>
</svg>
